# xmcd
#
# Track frame offsets:
#	150
#	8761
#	34074
#	51678
#	65567
#	88093
#	109205
#	142074
#	158489
#	209068
#	219833
#	251944
#	278529
#	302418
#	309150
#	334255
#
# Disc length: 4726 seconds
#
# Revision: 1
# Processed by: cddbd v1.5PL3 Copyright (c) Steve Scherf et al.
# Submitted via: CDmax 2.0
#
DISCID=e9127410
DTITLE=Hot Tuna - Jorma Kaukonen, Jack Casady and Barry Mitterhoff - Live at th
DTITLE=e Aggie, Fort Collins, Co - 01.10.2004 - d1
DYEAR=2004
DGENRE=Blues
TTITLE0=Intro - crowd noise
TTITLE1=Search My Heart
TTITLE2=Waiting For A Train
TTITLE3=Nobody Knows You When You're Down And Out
TTITLE4=Another Man Done Gone
TTITLE5=Keep Your Lamps Trimmed And Burning
TTITLE6=I See The Light
TTITLE7=I'll Let You Know Before I Leave
TTITLE8=Prohibition Blues
TTITLE9=Fur Peace Rag
TTITLE10=That'll Never Happen No More
TTITLE11=Genesis
TTITLE12=Red River Blues
TTITLE13=banter
TTITLE14=Hesitation Blues
TTITLE15=Big River Blues
EXTD=Hot Tuna 2, 2004\nJorma Kaukonen, Jack Casady\n& Barry Mitterhoff \nTh
EXTD=e Aggie\nFort Collins, Colorado\nSaturday, January 10, 2004\n\nRecorde
EXTD=d and Mastered by Paul Rennix\npaul@taperfriendly.com\nAKGC1000s>DeneckeAD
EXTD=20>VXPocket\nMastering: \nNormalized to -16dB w/SF6.0\nTracked with CDWa
EXTD=ve 1.92 beta\n\nUpdated Setlist will be at www.taperfriendly.com\nPleas
EXTD=e send any updates not yet reflected there\nto paul@taperfriendly.com\n\
EXTD=nSet One: \n    (Disk 1]\n101 Intro - crowd noise\n102 Search My Heart\n
EXTD=103 Waiting For A Train\n104 Nobody Knows You When You're Down And Out\n
EXTD=105 Another Man Done Gone >\n106 Keep Your Lamps Trimmed And Burning\n10
EXTD=7 I See The Light\n108 I'll Let You Know Before I Leave\n109 Prohibitio
EXTD=n Blues\n110 Fur Peace Rag\n111 That'll Never Happen No More\n112 Genesi
EXTD=s\n113 Red River Blues\n114 banter\nSet Two:\n115 Hesitation Blues\n11
EXTD=6 Big River Blues\n\n    (~Disk Two~]\n201 Death Don't Have No Mercy\n20
EXTD=2 Serpent Of Dreams\n203 Blues Stay Away From Me\n204 Uncle Sam Blues\n2
EXTD=05 Heart Temporary\n206 Bread Line Blues\n207 Living In The Moment\n20
EXTD=8 Good Shepherd\n209 San Francisco Bay Blues\nEncore: \n210 Nine Pound H
EXTD=ammer
EXTT0=
EXTT1=
EXTT2=
EXTT3=
EXTT4=
EXTT5=
EXTT6=
EXTT7=
EXTT8=
EXTT9=
EXTT10=
EXTT11=
EXTT12=
EXTT13=
EXTT14=
EXTT15=
PLAYORDER=
